<mxfile host="app.diagrams.net" modified="2023-08-25T06:01:55.079Z" agent="Mozilla/5.0 (Windows NT 10.0; Win64; x64; rv:109.0) Gecko/20100101 Firefox/116.0" version="21.6.9" etag="rOTioJGMW8Q9Okbcsemp" type="github">
  <diagram name="Page-1" id="cqiVlCcLflOw0s2MbC7h">
    <mxGraphModel>
      <root>
        <mxCell id="0" />
        <mxCell id="1" parent="0" />
      </root>
    </mxGraphModel>
  </diagram>
</mxfile>
